<svg xmlns="http://www.w3.org/2000/svg" xmlns:xlink="http://www.w3.org/1999/xlink" width="500" zoomAndPan="magnify" viewBox="0 0 375 374.999991" height="500" preserveAspectRatio="xMidYMid meet" version="1.0"><defs><g/><clipPath id="c74f5779f3"><path d="M 27.914062 123.957031 L 92.558594 123.957031 L 92.558594 203.757812 L 27.914062 203.757812 Z M 27.914062 123.957031 " clip-rule="nonzero"/></clipPath><clipPath id="2a65a1763b"><path d="M 49.472656 201.65625 C 52.789062 202.785156 56.554688 203.523438 60.253906 203.523438 C 63.953125 203.523438 67.511719 202.890625 70.789062 201.761719 C 70.859375 201.726562 70.929688 201.726562 71 201.691406 C 83.3125 197.183594 92.382812 185.277344 92.558594 171.367188 L 92.558594 123.957031 L 27.914062 123.957031 L 27.914062 171.332031 C 28.085938 185.347656 37.019531 197.253906 49.472656 201.65625 Z M 49.472656 201.65625 " clip-rule="nonzero"/></clipPath><clipPath id="fc9d61392c"><path d="M 24.046875 118.058594 L 95.417969 118.058594 L 95.417969 170.679688 L 24.046875 170.679688 Z M 24.046875 118.058594 " clip-rule="nonzero"/></clipPath><clipPath id="442dbde77d"><path d="M 42.945312 153.386719 L 77.527344 153.386719 L 77.527344 187.972656 L 42.945312 187.972656 Z M 42.945312 153.386719 " clip-rule="nonzero"/></clipPath><clipPath id="2fb8e375bd"><path d="M 60.234375 153.386719 C 50.6875 153.386719 42.945312 161.128906 42.945312 170.679688 C 42.945312 180.230469 50.6875 187.972656 60.234375 187.972656 C 69.785156 187.972656 77.527344 180.230469 77.527344 170.679688 C 77.527344 161.128906 69.785156 153.386719 60.234375 153.386719 Z M 60.234375 153.386719 " clip-rule="nonzero"/></clipPath><clipPath id="e870ecfc30"><path d="M 42.945312 153.386719 L 77.445312 153.386719 L 77.445312 187.886719 L 42.945312 187.886719 Z M 42.945312 153.386719 " clip-rule="nonzero"/></clipPath><clipPath id="359780c474"><path d="M 60.234375 153.386719 C 50.6875 153.386719 42.945312 161.128906 42.945312 170.679688 C 42.945312 180.226562 50.6875 187.96875 60.234375 187.96875 C 69.785156 187.96875 77.527344 180.226562 77.527344 170.679688 C 77.527344 161.128906 69.785156 153.386719 60.234375 153.386719 Z M 60.234375 153.386719 " clip-rule="nonzero"/></clipPath><clipPath id="c938ac5947"><path d="M 27.410156 138.355469 L 92.660156 138.355469 L 92.660156 202.855469 L 27.410156 202.855469 Z M 27.410156 138.355469 " clip-rule="nonzero"/></clipPath><clipPath id="06f6927d1d"><path d="M 59.980469 138.355469 C 41.992188 138.355469 27.410156 152.828125 27.410156 170.675781 C 27.410156 188.527344 41.992188 202.996094 59.980469 202.996094 C 77.972656 202.996094 92.554688 188.527344 92.554688 170.675781 C 92.554688 152.828125 77.972656 138.355469 59.980469 138.355469 Z M 59.980469 138.355469 " clip-rule="nonzero"/></clipPath><clipPath id="fa7c68a514"><path d="M 27.914062 138.355469 L 362.414062 138.355469 L 362.414062 204.25 L 27.914062 204.25 Z M 27.914062 138.355469 " clip-rule="nonzero"/></clipPath><clipPath id="845c471356"><path d="M 329.78125 138.355469 C 347.976562 138.355469 362.730469 153.109375 362.730469 171.304688 C 362.730469 189.5 347.976562 204.25 329.78125 204.25 L 60.859375 204.25 C 42.664062 204.25 27.914062 189.5 27.914062 171.304688 C 27.914062 153.109375 42.664062 138.355469 60.859375 138.355469 Z M 329.78125 138.355469 " clip-rule="nonzero"/></clipPath></defs><g clip-path="url(#c74f5779f3)"><g clip-path="url(#2a65a1763b)"><path fill="#4f46e5" d="M 27.914062 123.957031 L 92.558594 123.957031 L 92.558594 203.503906 L 27.914062 203.503906 Z M 27.914062 123.957031 " fill-opacity="1" fill-rule="nonzero"/></g></g><g clip-path="url(#fc9d61392c)"><path fill="#ffffff" d="M 24.046875 118.058594 L 95.375 118.058594 L 95.375 170.679688 L 24.046875 170.679688 Z M 24.046875 118.058594 " fill-opacity="1" fill-rule="nonzero"/></g><g clip-path="url(#442dbde77d)"><g clip-path="url(#2fb8e375bd)"><path fill="#4f46e5" d="M 42.945312 153.386719 L 77.527344 153.386719 L 77.527344 187.972656 L 42.945312 187.972656 Z M 42.945312 153.386719 " fill-opacity="1" fill-rule="nonzero"/></g></g><g clip-path="url(#e870ecfc30)"><g clip-path="url(#359780c474)"><path stroke-linecap="butt" transform="matrix(0.75, 0, 0, 0.75, 42.944102, 153.387748)" fill="none" stroke-linejoin="miter" d="M 23.053699 -0.00137277 C 10.324532 -0.00137277 0.00161443 10.321545 0.00161443 23.05592 C 0.00161443 35.785088 10.324532 46.108005 23.053699 46.108005 C 35.788075 46.108005 46.110992 35.785088 46.110992 23.05592 C 46.110992 10.321545 35.788075 -0.00137277 23.053699 -0.00137277 Z M 23.053699 -0.00137277 " stroke="#000000" stroke-width="4" stroke-opacity="1" stroke-miterlimit="4"/></g></g><g clip-path="url(#c938ac5947)"><g clip-path="url(#06f6927d1d)"><path stroke-linecap="butt" transform="matrix(0.75, 0, 0, 0.75, 27.410183, 138.356564)" fill="none" stroke-linejoin="miter" d="M 43.427051 -0.00145995 C 19.442674 -0.00145995 -0.0000354801 19.295416 -0.0000354801 43.092293 C -0.0000354801 66.894378 19.442674 86.186046 43.427051 86.186046 C 67.416636 86.186046 86.859345 66.894378 86.859345 43.092293 C 86.859345 19.295416 67.416636 -0.00145995 43.427051 -0.00145995 Z M 43.427051 -0.00145995 " stroke="#000000" stroke-width="8" stroke-opacity="1" stroke-miterlimit="4"/></g></g><g fill="#000000" fill-opacity="1"><g transform="translate(95.413153, 190.495913)"><g><path d="M 37.71875 0 L 29.546875 0 L 26.59375 -9.0625 L 11.53125 -9.0625 L 8.578125 0 L 0.59375 0 L 14.171875 -39.3125 L 24.140625 -39.3125 Z M 18.6875 -31.109375 L 13.625 -15.59375 L 24.4375 -15.59375 L 19.359375 -31.109375 Z M 18.6875 -31.109375 "/></g></g></g><g fill="#000000" fill-opacity="1"><g transform="translate(133.726038, 190.495913)"><g><path d="M 13.875 0.5625 C 11.84375 0.5625 9.984375 0.328125 8.296875 -0.140625 C 6.617188 -0.617188 5.179688 -1.273438 3.984375 -2.109375 C 2.796875 -2.941406 1.914062 -3.894531 1.34375 -4.96875 L 5.484375 -9.4375 L 6.046875 -9.4375 C 7.035156 -8.113281 8.203125 -7.117188 9.546875 -6.453125 C 10.890625 -5.785156 12.347656 -5.453125 13.921875 -5.453125 C 15.378906 -5.453125 16.472656 -5.710938 17.203125 -6.234375 C 17.941406 -6.753906 18.3125 -7.5 18.3125 -8.46875 C 18.3125 -9.21875 18.046875 -9.847656 17.515625 -10.359375 C 16.984375 -10.867188 16.128906 -11.269531 14.953125 -11.5625 L 11.015625 -12.5 C 8.078125 -13.195312 5.929688 -14.265625 4.578125 -15.703125 C 3.222656 -17.148438 2.546875 -18.988281 2.546875 -21.21875 C 2.546875 -23.0625 3.015625 -24.660156 3.953125 -26.015625 C 4.898438 -27.378906 6.226562 -28.421875 7.9375 -29.140625 C 9.65625 -29.859375 11.648438 -30.21875 13.921875 -30.21875 C 16.597656 -30.21875 18.8125 -29.832031 20.5625 -29.0625 C 22.320312 -28.289062 23.695312 -27.257812 24.6875 -25.96875 L 20.703125 -21.671875 L 20.171875 -21.671875 C 19.335938 -22.597656 18.40625 -23.273438 17.375 -23.703125 C 16.34375 -24.140625 15.191406 -24.359375 13.921875 -24.359375 C 10.984375 -24.359375 9.515625 -23.441406 9.515625 -21.609375 C 9.515625 -20.835938 9.785156 -20.210938 10.328125 -19.734375 C 10.878906 -19.253906 11.847656 -18.859375 13.234375 -18.546875 L 16.890625 -17.75 C 19.898438 -17.101562 22.097656 -16.066406 23.484375 -14.640625 C 24.867188 -13.210938 25.5625 -11.300781 25.5625 -8.90625 C 25.5625 -7.019531 25.09375 -5.359375 24.15625 -3.921875 C 23.226562 -2.492188 21.882812 -1.390625 20.125 -0.609375 C 18.375 0.171875 16.289062 0.5625 13.875 0.5625 Z M 13.875 0.5625 "/></g></g></g><g fill="#000000" fill-opacity="1"><g transform="translate(161.069339, 190.495913)"><g><path d="M 4.28125 0 L 4.28125 -41.5625 L 11.71875 -41.5625 L 11.71875 -18.5 L 12.453125 -18.5 L 21.03125 -29.65625 L 28.578125 -29.65625 L 28.578125 -29.03125 L 18.5 -16.03125 L 29.703125 -0.671875 L 29.703125 0 L 21.859375 0 L 12.453125 -12.5 L 11.71875 -12.5 L 11.71875 0 Z M 4.28125 0 "/></g></g></g><g fill="#000000" fill-opacity="1"><g transform="translate(190.832402, 190.495913)"><g><path d="M 23.359375 0 L 13.984375 0 L 0.703125 -39.3125 L 8.953125 -39.3125 L 18.5 -10 L 19.171875 -10 L 28.578125 -39.3125 L 36.625 -39.3125 Z M 23.359375 0 "/></g></g></g><g fill="#000000" fill-opacity="1"><g transform="translate(228.150496, 190.495913)"><g><path d="M 7.984375 -33.203125 C 6.640625 -33.203125 5.546875 -33.609375 4.703125 -34.421875 C 3.859375 -35.242188 3.4375 -36.300781 3.4375 -37.59375 C 3.4375 -38.863281 3.859375 -39.90625 4.703125 -40.71875 C 5.546875 -41.53125 6.640625 -41.9375 7.984375 -41.9375 C 8.878906 -41.9375 9.675781 -41.75 10.375 -41.375 C 11.070312 -41 11.613281 -40.484375 12 -39.828125 C 12.382812 -39.171875 12.578125 -38.425781 12.578125 -37.59375 C 12.578125 -36.75 12.382812 -35.992188 12 -35.328125 C 11.613281 -34.660156 11.070312 -34.140625 10.375 -33.765625 C 9.675781 -33.390625 8.878906 -33.203125 7.984375 -33.203125 Z M 4.28125 0 L 4.28125 -29.65625 L 11.71875 -29.65625 L 11.71875 0 Z M 4.28125 0 "/></g></g></g><g fill="#000000" fill-opacity="1"><g transform="translate(244.12092, 190.495913)"><g><path d="M 4.28125 0 L 4.28125 -29.65625 L 11.421875 -29.65625 L 11.421875 -25.296875 L 11.984375 -25.171875 C 13.835938 -28.535156 16.832031 -30.21875 20.96875 -30.21875 C 24.394531 -30.21875 26.910156 -29.285156 28.515625 -27.421875 C 30.117188 -25.554688 30.921875 -22.84375 30.921875 -19.28125 L 30.921875 0 L 23.46875 0 L 23.46875 -18.359375 C 23.46875 -20.335938 23.070312 -21.757812 22.28125 -22.625 C 21.5 -23.488281 20.238281 -23.921875 18.5 -23.921875 C 16.363281 -23.921875 14.695312 -23.226562 13.5 -21.84375 C 12.3125 -20.46875 11.71875 -18.304688 11.71875 -15.359375 L 11.71875 0 Z M 4.28125 0 "/></g></g></g><g fill="#000000" fill-opacity="1"><g transform="translate(278.857937, 190.495913)"><g><path d="M 4.28125 0 L 4.28125 -29.65625 L 11.421875 -29.65625 L 11.421875 -25.296875 L 11.984375 -25.171875 C 13.835938 -28.535156 16.832031 -30.21875 20.96875 -30.21875 C 24.394531 -30.21875 26.910156 -29.285156 28.515625 -27.421875 C 30.117188 -25.554688 30.921875 -22.84375 30.921875 -19.28125 L 30.921875 0 L 23.46875 0 L 23.46875 -18.359375 C 23.46875 -20.335938 23.070312 -21.757812 22.28125 -22.625 C 21.5 -23.488281 20.238281 -23.921875 18.5 -23.921875 C 16.363281 -23.921875 14.695312 -23.226562 13.5 -21.84375 C 12.3125 -20.46875 11.71875 -18.304688 11.71875 -15.359375 L 11.71875 0 Z M 4.28125 0 "/></g></g></g><g fill="#000000" fill-opacity="1"><g transform="translate(313.594953, 190.495913)"><g><path d="M 6.5625 12.578125 C 5.289062 12.578125 4.140625 12.476562 3.109375 12.28125 C 2.078125 12.082031 1.238281 11.820312 0.59375 11.5 L 1.78125 5.484375 L 2.265625 5.328125 C 2.710938 5.554688 3.265625 5.742188 3.921875 5.890625 C 4.585938 6.035156 5.269531 6.109375 5.96875 6.109375 C 7.164062 6.109375 8.160156 5.945312 8.953125 5.625 C 9.753906 5.3125 10.429688 4.789062 10.984375 4.0625 C 11.546875 3.34375 12.039062 2.335938 12.46875 1.046875 L 0.640625 -29.65625 L 8.4375 -29.65625 L 15.8125 -9.03125 L 16.453125 -9.03125 L 23.625 -29.65625 L 31.21875 -29.65625 L 19.296875 1.859375 C 18.347656 4.398438 17.304688 6.445312 16.171875 8 C 15.035156 9.550781 13.691406 10.703125 12.140625 11.453125 C 10.585938 12.203125 8.726562 12.578125 6.5625 12.578125 Z M 6.5625 12.578125 "/></g></g></g><g clip-path="url(#fa7c68a514)"><g clip-path="url(#845c471356)"><path stroke-linecap="butt" transform="matrix(0.75, 0, 0, 0.75, 27.913051, 138.356564)" fill="none" stroke-linejoin="miter" d="M 402.490959 -0.00145995 C 426.751377 -0.00145995 446.423253 19.670416 446.423253 43.930835 C 446.423253 68.191253 426.751377 87.857921 402.490959 87.857921 L 43.928435 87.857921 C 19.668017 87.857921 0.001349 68.191253 0.001349 43.930835 C 0.001349 19.670416 19.668017 -0.00145995 43.928435 -0.00145995 Z M 402.490959 -0.00145995 " stroke="#000000" stroke-width="8" stroke-opacity="1" stroke-miterlimit="4"/></g></g></svg>